<svg id="Layer_1" data-name="Layer 1" xmlns="http://www.w3.org/2000/svg" viewBox="0 0 129 75.2"><defs><style>.cls-1{fill:#263576;}.cls-2{fill:#fff;}.cls-3{fill:#e62530;}</style></defs><title>grupo-bimbo-logotipo_0-v2</title><path class="cls-1" d="M2.8,63.4h.9l2,5.4H4.6l-.5-1.3H2.3l-.5,1.3H.7ZM4,66.7l-.7-2.1-.8,2.1Z"/><path class="cls-1" d="M6.3,68.8V63.4h1v4.5H10v.9Z"/><path class="cls-1" d="M10.7,68.8V63.4h1v5.4Z"/><path class="cls-1" d="M17.3,68.8V65.2l-1.4,2.7h-.6l-1.4-2.7v3.6h-1V63.4H14l1.6,3.1,1.6-3.1h1.1v5.4Z"/><path class="cls-1" d="M23.2,67.9v.9H19.5V63.4h3.7v.9H20.6v1.3h2.3v.8H20.6v1.4l2.6.1Z"/><path class="cls-1" d="M25,65.3v3.4H24V63.3h.8l2.8,3.5V63.3h1v5.4h-.8Z"/><path class="cls-1" d="M33.8,64.3H32.1v4.5h-1V64.3H29.4v-.9h4.5l-.1.9Z"/><path class="cls-1" d="M35.5,63.4h.9l2,5.4H37.3l-.5-1.3H35l-.5,1.3H33.4Zm1.2,3.3L36,64.6l-.8,2.1Z"/><path class="cls-1" d="M43.4,68.8V65.2L42,67.9h-.6L40,65.2v3.6H39V63.4h1.1l1.6,3.1,1.6-3.1h1.1v5.4Z"/><path class="cls-1" d="M47.9,68.8a3.59,3.59,0,0,1-1.1-.2A5.55,5.55,0,0,1,46,68a2.62,2.62,0,0,1-.5-.9,3.55,3.55,0,0,1-.2-1,3,3,0,0,1,.2-1,2.36,2.36,0,0,1,.6-.9,1.56,1.56,0,0,1,.8-.6,3.59,3.59,0,0,1,1.1-.2,4.25,4.25,0,0,1,1.1.2,5.55,5.55,0,0,1,.8.6,4.05,4.05,0,0,1,.5.9,3.55,3.55,0,0,1,.2,1,3,3,0,0,1-.2,1,4.05,4.05,0,0,1-.5.9,2.41,2.41,0,0,1-.8.6A3,3,0,0,1,47.9,68.8Zm-1.6-2.7a1.7,1.7,0,0,0,.1.7l.3.6a1,1,0,0,0,.5.4,1.32,1.32,0,0,0,1.4,0,1,1,0,0,0,.5-.4l.3-.6a1.48,1.48,0,0,0,.1-.7,1.7,1.7,0,0,0-.1-.7l-.3-.6a1,1,0,0,0-.5-.4,1.48,1.48,0,0,0-.7-.1,1.45,1.45,0,0,0-.7.2,1,1,0,0,0-.5.4l-.3.6A1.27,1.27,0,0,0,46.3,66.1Z"/><path class="cls-1" d="M54.5,64.8a.35.35,0,0,0-.2-.1c-.1-.1-.2-.1-.3-.2a.6.6,0,0,0-.4-.1c-.2,0-.3-.1-.5-.1a.85.85,0,0,0-.6.2.76.76,0,0,0-.2.4.37.37,0,0,0,.1.3l.2.2c.1.1.2.1.4.2s.3.1.5.1a6.37,6.37,0,0,1,.7.2,2.19,2.19,0,0,1,.5.3c.1.1.3.3.3.4a1.27,1.27,0,0,1,.1.6,1.45,1.45,0,0,1-.2.7,2.18,2.18,0,0,1-.4.5l-.6.3a2,2,0,0,1-.8.1,5,5,0,0,1-1.2-.2,5.36,5.36,0,0,1-1.1-.5l.5-.9.2.2c.1.1.3.1.4.2s.3.1.5.2a1.27,1.27,0,0,0,.6.1q.9,0,.9-.6a.37.37,0,0,0-.1-.3c-.1-.1-.2-.2-.3-.2s-.3-.1-.4-.2a1.42,1.42,0,0,1-.6-.2,6.37,6.37,0,0,1-.7-.2c-.2-.1-.3-.2-.5-.3a1.38,1.38,0,0,1-.3-.4.75.75,0,0,1-.1-.5,1.45,1.45,0,0,1,.2-.7,1,1,0,0,1,.4-.5l.6-.3a2,2,0,0,1,.8-.1,3,3,0,0,1,1,.2,5.94,5.94,0,0,1,.8.4Z"/><path class="cls-1" d="M60,67.9c.2,0,.5,0,.6-.2a.78.78,0,0,0,.4-.4,1.07,1.07,0,0,0,.2-.6c0-.2.1-.4.1-.6V63.4h1v2.7a3.08,3.08,0,0,1-.1,1,2,2,0,0,1-.4.8,4.35,4.35,0,0,1-.7.6,3.12,3.12,0,0,1-2.2,0,1.34,1.34,0,0,1-.7-.6,1.88,1.88,0,0,1-.4-.9,3.75,3.75,0,0,1-.1-1V63.3h1V66a2,2,0,0,0,.1.7,1.42,1.42,0,0,0,.2.6.78.78,0,0,0,.4.4A.73.73,0,0,0,60,67.9Z"/><path class="cls-1" d="M64.5,65.3v3.4h-1V63.3h.8l2.8,3.5V63.3h1v5.4h-.8Z"/><path class="cls-1" d="M75.4,68.8V65.2L74,67.9h-.6L72,65.2v3.6H71V63.4h1.1l1.6,3.1,1.6-3.1h1.1v5.4Z"/><path class="cls-1" d="M79.8,67.9c.2,0,.5,0,.6-.2a.78.78,0,0,0,.4-.4,1.07,1.07,0,0,0,.2-.6c0-.2.1-.4.1-.6V63.4h1v2.7a3.08,3.08,0,0,1-.1,1,2,2,0,0,1-.4.8,4.35,4.35,0,0,1-.7.6,2,2,0,0,1-1.1.2,3.59,3.59,0,0,1-1.1-.2,1.34,1.34,0,0,1-.7-.6,1.88,1.88,0,0,1-.4-.9,3.75,3.75,0,0,1-.1-1V63.3h1V66a2,2,0,0,0,.1.7,1.42,1.42,0,0,0,.2.6.78.78,0,0,0,.4.4A.73.73,0,0,0,79.8,67.9Z"/><path class="cls-1" d="M84.3,65.3v3.4h-1V63.3h.8l2.8,3.5V63.3h1v5.4h-.8Z"/><path class="cls-1" d="M89,68.8V63.4h2a5,5,0,0,1,1.2.2,1.56,1.56,0,0,1,.8.6,1.93,1.93,0,0,1,.5.9,3.55,3.55,0,0,1,.2,1,3.59,3.59,0,0,1-.2,1.1,2.1,2.1,0,0,1-1.3,1.3,3.59,3.59,0,0,1-1.1.2l-2.1.1Zm3.6-2.7a1.48,1.48,0,0,0-.1-.7l-.3-.6a1,1,0,0,0-.5-.4,1.48,1.48,0,0,0-.7-.1h-.9v3.5H91a1.48,1.48,0,0,0,.7-.1,1,1,0,0,0,.5-.4,3.33,3.33,0,0,0,.3-.6C92.5,66.6,92.6,66.3,92.6,66.1Z"/><path class="cls-1" d="M96.7,68.8a3.59,3.59,0,0,1-1.1-.2,5.55,5.55,0,0,1-.8-.6,2.62,2.62,0,0,1-.5-.9,3.55,3.55,0,0,1-.2-1,3,3,0,0,1,.2-1,2.36,2.36,0,0,1,.6-.9,1.56,1.56,0,0,1,.8-.6,3.59,3.59,0,0,1,1.1-.2,4.25,4.25,0,0,1,1.1.2,5.55,5.55,0,0,1,.8.6,4.05,4.05,0,0,1,.5.9,3.55,3.55,0,0,1,.2,1,3,3,0,0,1-.2,1,4.05,4.05,0,0,1-.5.9,2.41,2.41,0,0,1-.8.6A2.54,2.54,0,0,1,96.7,68.8Zm-1.5-2.7a1.7,1.7,0,0,0,.1.7l.3.6a1,1,0,0,0,.5.4,1.33,1.33,0,0,0,1.4,0,1,1,0,0,0,.5-.4l.3-.6a1.48,1.48,0,0,0,.1-.7,1.7,1.7,0,0,0-.1-.7l-.3-.6a1,1,0,0,0-.5-.4,1.48,1.48,0,0,0-.7-.1,1.45,1.45,0,0,0-.7.2,1,1,0,0,0-.5.4l-.3.6A1.27,1.27,0,0,0,95.2,66.1Z"/><path class="cls-1" d="M106.4,68.8V65.2L105,67.9h-.6L103,65.2v3.6h-1V63.4h1.1l1.6,3.1,1.6-3.1h1.1v5.4Z"/><path class="cls-1" d="M112.3,67.9v.9h-3.7V63.4h3.7v.9h-2.6v1.3H112v.8h-2.3v1.4l2.6.1Z"/><path class="cls-1" d="M112.8,67.7c.1,0,.2.1.4.2a1.27,1.27,0,0,0,.6.1.75.75,0,0,0,.5-.1l.3-.3a1.08,1.08,0,0,0,.1-.6V63.5h1v2.7a3.75,3.75,0,0,1-.1,1.1,1.61,1.61,0,0,1-.3.9,1.7,1.7,0,0,1-.6.6,3.09,3.09,0,0,1-1.1.2,2.38,2.38,0,0,1-1.2-.3Z"/><path class="cls-1" d="M119.1,68.8a3.59,3.59,0,0,1-1.1-.2,5.55,5.55,0,0,1-.8-.6,2.62,2.62,0,0,1-.5-.9,3.55,3.55,0,0,1-.2-1,3,3,0,0,1,.2-1,2.36,2.36,0,0,1,.6-.9,1.56,1.56,0,0,1,.8-.6,3.59,3.59,0,0,1,1.1-.2,4.25,4.25,0,0,1,1.1.2,5.55,5.55,0,0,1,.8.6,4.05,4.05,0,0,1,.5.9,3.55,3.55,0,0,1,.2,1,3,3,0,0,1-.2,1,4.05,4.05,0,0,1-.5.9,2.41,2.41,0,0,1-.8.6A2.74,2.74,0,0,1,119.1,68.8Zm-1.6-2.7a1.7,1.7,0,0,0,.1.7l.3.6a1,1,0,0,0,.5.4,1.33,1.33,0,0,0,1.4,0,1,1,0,0,0,.5-.4l.3-.6a1.48,1.48,0,0,0,.1-.7,1.7,1.7,0,0,0-.1-.7l-.3-.6a1,1,0,0,0-.5-.4,1.48,1.48,0,0,0-.7-.1,1.45,1.45,0,0,0-.7.2,1,1,0,0,0-.5.4l-.3.6C117.6,65.7,117.5,65.9,117.5,66.1Z"/><path class="cls-1" d="M122.5,68.8V63.4h2.4a1.85,1.85,0,0,1,.7.2,1,1,0,0,1,.5.4,2.09,2.09,0,0,1,.4.6,1.27,1.27,0,0,1,.1.6,1.93,1.93,0,0,1-.3,1,1.34,1.34,0,0,1-.7.6l1.2,2h-1.2L124.5,67h-1v1.8Zm1.1-2.7h1.3a.37.37,0,0,0,.3-.1c.1-.1.2-.1.2-.2a.37.37,0,0,0,.1-.3c0-.1.1-.2.1-.3a.37.37,0,0,0-.1-.3c0-.1-.1-.2-.2-.3l-.2-.2c-.1,0-.2-.1-.3-.1h-1.3l.1,1.8Z"/><path class="cls-2" d="M14.3,6.1c-20.1,12.4-8.7,49.1-8.7,50,25.5-17.1,87,7,107.6-4.1,20.3-11,9-46.9,9-46.9C90.7,21,33.7-5.9,14.3,6.1Z"/><path class="cls-1" d="M123.3,3.9h0L114.5,1h-.3l-.3-.1c-7.2,6.5-20.3,7.1-35.1,6-6.5-.5-13.3-1.3-20.1-2.2C53.9,4.2,49,3.6,44.2,3.2a2.49,2.49,0,0,1-.8-.1c-.5,0-1.1-.1-1.6-.1-5.4-.5-10.5-.8-15.2-.8-13.2.3-23.1,6.7-25.5,25v.4c-1.8,14.6,2.6,30,3.1,30.3.1,0,.1.1.2.1l7.3,1.4h.1a.37.37,0,0,0,.3-.1c10-9.1,33.4-6.7,55.9-4.4,11.6,1.3,23.5,2.5,33.3,2.1,1.6-.1,3.1-.2,4.6-.4,12.5-1.9,19.1-9.8,20.6-24.4,1.7-15.1-2.9-28.1-3.2-28.3M14,6.7c19.4-11.9,76.5,14.7,107.7-1,0,0,11.3,35.3-9,46.1C92.2,62.8,30.6,39,5.1,55.9,5.3,55.1-6,18.9,14,6.7M84.7,55.5c.4,0,1,.1,1.4.1-.4,0-1-.1-1.4-.1"/><path class="cls-3" d="M31.2,30.7a5.54,5.54,0,0,0,2.5-4.8c0-4.2-2.7-6.4-8-6.4H14.3V44.1H26.1c4,0,8.7-1.9,8.7-7.3,0-3-1.2-5-3.6-6.1M25.4,39h-5V24.5h4.3c2.7,0,3,1.1,3,2.2,0,1.5-.9,2.3-2.6,2.3H23.6l-2.1,4.5h4c2.2,0,3.1.9,3.1,2.8.2,1.2-.3,2.7-3.2,2.7"/><rect class="cls-3" x="36.3" y="19.5" width="6.2" height="24.6"/><polygon class="cls-3" points="57.3 33.3 54.2 19.4 44.5 19.4 44.5 43.9 50.6 43.9 50.6 28.9 54.2 43.9 60.4 43.9 64 28.7 64 43.9 70.1 43.9 70.1 19.4 60.4 19.4 57.3 33.3"/><path class="cls-3" d="M89.3,30.8A5.54,5.54,0,0,0,91.8,26c0-4.2-2.7-6.4-8-6.4H72.4V44.2H84.2c4,0,8.7-1.9,8.7-7.3a6.31,6.31,0,0,0-3.6-6.1m-5.8,8.3h-5V24.8h4.3c2.7,0,3,1.1,3,2.2,0,1.5-.9,2.3-2.6,2.3H81.8l-2.3,4.5h4c2.2,0,3.1.9,3.1,2.8.2,1.1-.2,2.5-3.1,2.5"/><path class="cls-3" d="M106,19.2a12.3,12.3,0,1,0,12.3,12.3A12.29,12.29,0,0,0,106,19.2M106,38a6.5,6.5,0,0,1,0-13,6.5,6.5,0,0,1,0,13"/><path class="cls-1" d="M22.4,16.3a4.92,4.92,0,0,1-1.7.6,11,11,0,0,1-1.8.2,5.66,5.66,0,0,1-1.8-.3,6.38,6.38,0,0,1-1.4-.8,3.81,3.81,0,0,1-.9-1.3,5,5,0,0,1,0-3.4,3.81,3.81,0,0,1,.9-1.3,3.92,3.92,0,0,1,1.4-.8A6.8,6.8,0,0,1,19,8.9a9,9,0,0,1,1.8.2,3.92,3.92,0,0,1,1.4.8L21,11.2a2.18,2.18,0,0,0-.8-.5,3.73,3.73,0,0,0-1.2-.2,3,3,0,0,0-1,.2A2.1,2.1,0,0,0,16.7,12a3,3,0,0,0-.2,1,3,3,0,0,0,.2,1A2.1,2.1,0,0,0,18,15.3a3.55,3.55,0,0,0,1,.2,3.08,3.08,0,0,0,1-.1,4.88,4.88,0,0,0,.7-.3V13.8H19.2V12.2h3.2Z"/><path class="cls-1" d="M23.5,9.1h3.2a4.87,4.87,0,0,1,1.2.1,3,3,0,0,1,1,.4,2.34,2.34,0,0,1,.7.7,2,2,0,0,1,.2,1.1,2.3,2.3,0,0,1-.4,1.4,1.86,1.86,0,0,1-1.3.7l2.1,3.3H28l-1.7-3.1h-.9v3.1H23.6V9.1Zm1.8,3.2h1.6a.9.9,0,0,0,.5-.1c.1-.1.3-.1.4-.3a.75.75,0,0,0,.1-.5.75.75,0,0,0-.1-.5l-.3-.3a.6.6,0,0,0-.4-.1H25.4v1.8Z"/><path class="cls-1" d="M37.4,13.9a5.07,5.07,0,0,1-.2,1.3,3.33,3.33,0,0,1-.6,1,3,3,0,0,1-1.1.7,7.72,7.72,0,0,1-1.5.2,6.05,6.05,0,0,1-1.5-.2,4.13,4.13,0,0,1-1.1-.7,2.07,2.07,0,0,1-.6-1,5.07,5.07,0,0,1-.2-1.3V9.1h1.8v4.7a1.7,1.7,0,0,0,.1.7,2.19,2.19,0,0,0,.3.5.85.85,0,0,0,.5.3,1.48,1.48,0,0,0,.7.1,1.7,1.7,0,0,0,.7-.1,2.19,2.19,0,0,0,.5-.3c.1-.2.3-.3.3-.5a1.48,1.48,0,0,0,.1-.7V9.1h1.8Z"/><path class="cls-1" d="M38.6,9.1h3a4.87,4.87,0,0,1,1.2.1,3,3,0,0,1,1,.4,2.34,2.34,0,0,1,.7.7,2,2,0,0,1,.2,1.1,3.09,3.09,0,0,1-.2,1.1,2.17,2.17,0,0,1-.6.7,3,3,0,0,1-1,.4,4.87,4.87,0,0,1-1.2.1H40.4v3H38.6Zm1.8,3.3h1.7c.1,0,.3-.1.4-.1l.3-.3a.75.75,0,0,0,.1-.5.75.75,0,0,0-.1-.5,1.38,1.38,0,0,0-.4-.3.9.9,0,0,0-.5-.1H40.5v1.8Z"/><path class="cls-1" d="M45.4,13a4.67,4.67,0,0,1,.3-1.7,3.81,3.81,0,0,1,.9-1.3A3.92,3.92,0,0,1,48,9.2a4.84,4.84,0,0,1,1.8-.3,5.66,5.66,0,0,1,1.8.3A6.38,6.38,0,0,1,53,10a3.81,3.81,0,0,1,.9,1.3,5,5,0,0,1,0,3.4A3.81,3.81,0,0,1,53,16a3.92,3.92,0,0,1-1.4.8,4.84,4.84,0,0,1-1.8.3,5.66,5.66,0,0,1-1.8-.3,6.38,6.38,0,0,1-1.4-.8,3.81,3.81,0,0,1-.9-1.3,4.67,4.67,0,0,1-.3-1.7m1.9,0a3,3,0,0,0,.2,1,2.1,2.1,0,0,0,1.3,1.3,3.55,3.55,0,0,0,1,.2,3,3,0,0,0,1-.2A2.1,2.1,0,0,0,52.1,14a3,3,0,0,0,.2-1,3,3,0,0,0-.2-1,2.1,2.1,0,0,0-1.3-1.3,3.55,3.55,0,0,0-1-.2,3,3,0,0,0-1,.2A2.1,2.1,0,0,0,47.5,12a1.64,1.64,0,0,0-.2,1"/><path class="cls-1" d="M121.2,56.1a3,3,0,0,1,.2-1,1.56,1.56,0,0,1,.6-.8,5.55,5.55,0,0,1,.8-.6,3.55,3.55,0,0,1,1-.2,3,3,0,0,1,1,.2,2.18,2.18,0,0,1,.8.5,5.55,5.55,0,0,1,.6.8,3.55,3.55,0,0,1,.2,1,3,3,0,0,1-.2,1,1.56,1.56,0,0,1-.6.8,5.55,5.55,0,0,1-.8.6,3.55,3.55,0,0,1-1,.2,3,3,0,0,1-1-.2,2.18,2.18,0,0,1-.8-.5,5.55,5.55,0,0,1-.6-.8,3,3,0,0,1-.2-1m.5,0a2.92,2.92,0,0,0,.2.9,2.62,2.62,0,0,0,1.2,1.2,2.13,2.13,0,0,0,1.8,0,2.62,2.62,0,0,0,1.2-1.2,2.13,2.13,0,0,0,0-1.8,2.62,2.62,0,0,0-1.2-1.2,2.12,2.12,0,0,0-1.8,0,2.62,2.62,0,0,0-1.2,1.2,1.49,1.49,0,0,0-.2.9m1.2-1.5H124a1.55,1.55,0,0,1,.8.2.78.78,0,0,1,.3.7.85.85,0,0,1-.2.6,1.07,1.07,0,0,1-.6.2l.9,1.3h-.5l-.8-1.3h-.5v1.3H123v-3Zm.4,1.4h.8a.37.37,0,0,0,.3-.1c.1,0,.1-.1.2-.1s.1-.2.1-.3a.37.37,0,0,0-.1-.3c0-.1-.1-.1-.2-.1s-.1-.1-.2-.1h-.9v1Z"/></svg>